<mxfile host="app.diagrams.net" modified="2024-03-31T20:03:23.443Z" agent="Mozilla/5.0 (Windows NT 10.0; Win64; x64; rv:124.0) Gecko/20100101 Firefox/124.0" version="22.1.18" etag="uTBrJ3Es7mnAx8bLEz7Z" type="github">
  <diagram name="PÃ¡gina-1" id="yqlE_gQyOXb5UloV9ekd">
    <mxGraphModel>
      <root>
        <mxCell id="0" />
        <mxCell id="1" parent="0" />
      </root>
    </mxGraphModel>
  </diagram>
</mxfile>
